<?xml version="1.0" standalone="no"?>
<!DOCTYPE svg PUBLIC "-//W3C//DTD SVG 20010904//EN"
 "http://www.w3.org/TR/2001/REC-SVG-20010904/DTD/svg10.dtd">
<svg version="1.0" xmlns="http://www.w3.org/2000/svg"
 width="50.000000pt" height="50.000000pt" viewBox="0 0 50.000000 39.000000"
 preserveAspectRatio="xMidYMid meet">
<metadata>
Created by potrace 1.16, written by Peter Selinger 2001-2019
</metadata>
<g transform="translate(0.000000,39.000000) scale(0.004167,-0.003250)"
fill="#000000" stroke="none">
<path d="M2840 8975 l0 -415 70 0 70 0 0 163 c1 154 2 163 24 190 l23 28 96
-173 c53 -96 103 -182 110 -191 10 -15 25 -17 89 -15 l77 3 -139 235 c-77 129
-140 239 -140 244 0 6 122 155 268 329 14 16 10 17 -74 17 l-89 0 -120 -152
-120 -152 -3 152 -3 152 -69 0 -70 0 0 -415z"/>
<path d="M4360 9270 l0 -120 -65 0 -65 0 0 -60 0 -60 64 0 64 0 4 -163 c3
-162 3 -164 33 -213 89 -145 338 -139 409 10 9 19 19 48 22 64 6 30 5 30 -52
42 -33 7 -60 8 -61 3 -27 -80 -91 -117 -157 -89 -22 9 -40 25 -46 41 -6 15
-10 89 -10 166 l0 139 125 0 125 0 0 60 0 60 -125 0 -125 0 0 120 0 120 -70 0
-70 0 0 -120z"/>
<path d="M6390 8975 l0 -415 70 0 70 0 0 180 0 180 155 0 155 0 0 60 0 60
-155 0 -155 0 0 115 0 115 195 0 195 0 0 60 0 60 -265 0 -265 0 0 -415z"/>
<path d="M8800 9330 l0 -60 59 0 58 0 0 -79 1 -80 -41 27 c-57 38 -153 43
-226 12 -100 -44 -162 -152 -162 -285 0 -85 6 -115 36 -175 45 -89 128 -139
229 -140 48 0 70 6 113 30 54 31 54 31 51 8 -3 -22 1 -23 65 -26 l67 -3 0 416
0 415 -125 0 -125 0 0 -60z m35 -291 c79 -20 82 -28 81 -183 -1 -153 -2 -155
-84 -176 -130 -33 -232 84 -201 231 13 62 50 105 104 124 49 17 47 17 100 4z"/>
<path d="M3709 9156 c-130 -46 -202 -153 -202 -296 0 -125 57 -219 168 -278
45 -25 60 -27 160 -27 100 0 115 3 166 27 31 16 64 37 74 48 17 19 17 21 -10
60 -16 23 -32 43 -36 45 -3 3 -34 -9 -67 -27 -110 -56 -249 -37 -295 42 -10
15 -17 33 -17 39 0 8 74 11 246 11 l247 0 -6 59 c-15 139 -96 258 -201 294
-59 20 -175 22 -227 3z m202 -138 c34 -19 69 -63 69 -87 0 -8 -52 -11 -165
-11 -91 0 -165 3 -165 8 0 4 9 21 20 39 48 79 151 100 241 51z"/>
<path d="M5140 9161 c-154 -47 -240 -196 -210 -363 19 -104 67 -171 154 -215
72 -38 198 -44 276 -14 66 25 130 84 162 150 33 67 33 215 0 283 -33 65 -96
124 -159 148 -56 21 -172 26 -223 11z m143 -122 c50 -13 103 -61 118 -106 16
-51 7 -147 -18 -181 -116 -157 -346 -59 -319 137 11 79 58 135 127 151 47 11
50 11 92 -1z"/>
<path d="M7270 9161 c-154 -47 -240 -196 -210 -363 19 -104 67 -171 154 -215
72 -38 198 -44 276 -14 66 25 130 84 162 150 33 67 33 215 0 283 -33 65 -96
124 -159 148 -56 21 -172 26 -223 11z m143 -122 c50 -13 103 -61 118 -106 16
-51 7 -147 -18 -181 -116 -157 -346 -59 -319 137 11 79 58 135 127 151 47 11
50 11 92 -1z"/>
<path d="M7980 9161 c-154 -47 -240 -196 -210 -363 19 -104 67 -171 154 -215
72 -38 198 -44 276 -14 66 25 130 84 162 150 33 67 33 215 0 283 -33 65 -96
124 -159 148 -56 21 -172 26 -223 11z m143 -122 c50 -13 103 -61 118 -106 16
-51 7 -147 -18 -181 -116 -157 -346 -59 -319 137 11 79 58 135 127 151 47 11
50 11 92 -1z"/>
<path d="M5944 6581 c-63 -39 -64 -44 -64 -278 l0 -213 33 -35 c39 -44 89 -55
139 -31 64 30 68 49 68 285 l0 211 -33 36 c-41 45 -96 55 -143 25z"/>
<path d="M5333 6291 c-65 -30 -91 -99 -59 -159 26 -49 289 -301 324 -312 74
-21 152 41 152 120 0 49 -29 87 -172 227 -98 96 -163 144 -195 143 -4 0 -27
-9 -50 -19z"/>
<path d="M6422 6158 c-79 -79 -150 -155 -158 -170 -55 -104 59 -219 164 -164
40 21 289 277 301 309 15 38 14 63 -4 101 -20 42 -63 66 -116 66 -41 0 -46 -4
-187 -142z"/>
<path d="M3480 6139 c-107 -13 -290 -47 -351 -65 -91 -27 -112 -62 -152 -249
-61 -280 -65 -680 -11 -995 60 -346 211 -726 403 -1017 317 -479 777 -876
1274 -1100 156 -70 316 -123 373 -123 45 0 64 12 111 73 14 17 -1 94 -23 119
-28 33 -30 35 -134 69 -548 182 -1042 572 -1401 1109 -56 85 -209 370 -209
392 0 4 264 8 588 8 l587 0 295 -296 c162 -162 307 -302 322 -310 60 -32 130
-8 163 56 33 65 17 105 -84 205 l-71 69 0 693 c0 381 3 693 6 693 13 0 211
-157 294 -234 157 -143 147 -136 191 -136 51 0 94 25 114 66 35 75 12 117
-133 248 -150 134 -208 179 -368 286 -323 214 -686 356 -1079 422 -137 23
-574 34 -705 17z m608 -253 c9 -5 12 -95 12 -374 l-1 -367 -355 359 c-196 197
-352 362 -347 367 18 18 179 28 423 25 141 -1 261 -5 268 -10z m547 -137 c60
-23 149 -61 198 -85 l87 -44 0 -648 0 -647 -285 285 -285 285 0 471 0 472 87
-24 c49 -13 137 -43 198 -65z m-356 -1132 c13 -16 -16 -17 -497 -17 l-510 0
-22 82 c-75 277 -97 631 -58 932 l11 90 531 -535 c292 -294 537 -542 545 -552z"/>
<path d="M7947 6139 c-747 -79 -1420 -463 -1932 -1104 -48 -60 -92 -109 -97
-107 -5 1 -7 -2 -4 -7 3 -5 -28 -62 -70 -128 -291 -452 -440 -987 -428 -1528
6 -225 47 -511 89 -611 14 -34 14 -34 -13 -35 -27 -2 -27 -2 3 -8 17 -3 48
-16 70 -27 89 -48 360 -92 616 -101 327 -12 669 42 979 154 866 311 1575 1069
1816 1942 63 228 86 387 91 646 7 282 -14 496 -67 698 -23 86 -42 115 -93 137
-50 22 -264 64 -399 79 -111 13 -445 12 -561 0z m566 -250 c59 -6 107 -14 107
-18 0 -3 -196 -202 -435 -441 l-435 -435 0 432 c0 402 1 432 18 437 128 39
498 51 745 25z m-1003 -612 l0 -522 -400 -400 -400 -400 0 715 0 715 73 52
c191 136 384 240 593 318 65 24 122 44 127 45 4 0 7 -235 7 -523z m1311 223
c32 -360 -24 -736 -163 -1102 l-29 -78 -607 0 -607 0 690 690 690 690 7 -32
c4 -18 12 -94 19 -168z m-2351 -1057 l-1 -728 -388 -394 c-347 -353 -389 -391
-394 -370 -18 72 -29 299 -24 463 19 567 204 1052 576 1510 54 68 219 246 227
246 2 0 4 -327 4 -727z m2009 -410 c-121 -202 -277 -397 -448 -560 l-96 -93
-725 0 -725 0 345 345 345 345 663 0 664 0 -23 -37z m-879 -907 c0 -9 -218
-131 -304 -171 -201 -93 -450 -168 -667 -201 -149 -22 -461 -29 -616 -14 -70
7 -132 15 -137 17 -4 3 74 88 175 189 l184 184 682 0 c376 0 683 -2 683 -4z"/>
<path d="M4110 3832 c-135 -73 -39 -278 103 -218 42 17 77 68 77 111 0 43 -35
94 -75 111 -45 18 -63 18 -105 -4z"/>
<path d="M4424 3580 c-11 -4 -33 -22 -47 -40 -37 -44 -37 -106 -1 -150 70 -83
421 -276 642 -354 150 -53 210 -47 247 24 37 71 6 147 -72 175 -245 89 -406
166 -556 265 -138 91 -163 101 -213 80z"/>
</g>
</svg>
